<svg width="536" height="284" viewBox="0 0 536 284" fill="none" xmlns="http://www.w3.org/2000/svg">
<line x1="28.9999" y1="10.2551" x2="484.001" y2="10.2551" stroke="#EC9455" stroke-width="15"/>
<line x1="29" y1="269.5" x2="212" y2="269.5" stroke="#EC9455" stroke-width="15"/>
<line x1="301" y1="269.531" x2="482" y2="269.531" stroke="#EC9455" stroke-width="15"/>
<path d="M29.51 114V35.8H80.11V49.6H45.38V67.885H73.21V81.455H45.38V100.2H80.11V114H29.51ZM91.1168 114V94.91H107.677V114H91.1168ZM122.611 114V35.8H149.636L163.436 92.84L177.236 35.8H204.261V114H188.391V53.51H186.666L171.371 110.55H155.501L140.206 53.51H138.481V114H122.611ZM219.256 114V94.91H235.816V114H219.256ZM250.75 114V35.8H301.35V49.6H266.62V67.885H294.45V81.455H266.62V100.2H301.35V114H250.75ZM312.357 114V94.91H328.917V114H312.357ZM367.886 48.22C359.529 48.22 355.351 50.98 355.351 56.5C355.351 58.9533 356.386 60.8317 358.456 62.135C360.526 63.4383 365.356 65.3167 372.946 67.77C380.612 70.2233 385.979 73.0217 389.046 76.165C392.112 79.2317 393.646 83.985 393.646 90.425C393.646 98.6283 391.154 104.838 386.171 109.055C381.187 113.272 374.671 115.38 366.621 115.38C360.641 115.38 353.319 114.46 344.656 112.62L340.516 111.815L342.126 99.51C352.399 100.89 360.257 101.58 365.701 101.58C373.827 101.58 377.891 98.2067 377.891 91.46C377.891 89.0067 376.932 87.09 375.016 85.71C373.176 84.33 369.457 82.835 363.861 81.225C354.967 78.695 348.681 75.705 345.001 72.255C341.397 68.7283 339.596 63.86 339.596 57.65C339.596 49.83 341.972 44.0033 346.726 40.17C351.479 36.3367 357.996 34.42 366.276 34.42C371.949 34.42 379.156 35.1867 387.896 36.72L392.036 37.525L390.771 50.06C379.961 48.8333 372.332 48.22 367.886 48.22ZM404.335 114V94.91H420.895V114H404.335ZM459.863 48.22C451.507 48.22 447.328 50.98 447.328 56.5C447.328 58.9533 448.363 60.8317 450.433 62.135C452.503 63.4383 457.333 65.3167 464.923 67.77C472.59 70.2233 477.957 73.0217 481.023 76.165C484.09 79.2317 485.623 83.985 485.623 90.425C485.623 98.6283 483.132 104.838 478.148 109.055C473.165 113.272 466.648 115.38 458.598 115.38C452.618 115.38 445.297 114.46 436.633 112.62L432.493 111.815L434.103 99.51C444.377 100.89 452.235 101.58 457.678 101.58C465.805 101.58 469.868 98.2067 469.868 91.46C469.868 89.0067 468.91 87.09 466.993 85.71C465.153 84.33 461.435 82.835 455.838 81.225C446.945 78.695 440.658 75.705 436.978 72.255C433.375 68.7283 431.573 63.86 431.573 57.65C431.573 49.83 433.95 44.0033 438.703 40.17C443.457 36.3367 449.973 34.42 458.253 34.42C463.927 34.42 471.133 35.1867 479.873 36.72L484.013 37.525L482.748 50.06C471.938 48.8333 464.31 48.22 459.863 48.22Z" fill="#FFC9A2"/>
<g filter="url(#filter0_d_1_8)">
<path d="M29.656 244V146.08H63.496L80.776 217.504L98.056 146.08H131.896V244H112.024V168.256H109.864L90.712 239.68H70.84L51.688 168.256H49.528V244H29.656ZM206.689 194.464V224.416C206.881 226.72 207.265 228.352 207.841 229.312C208.417 230.176 209.617 230.8 211.441 231.184L210.865 245.728C205.969 245.728 202.033 245.392 199.057 244.72C196.177 244.048 193.249 242.704 190.273 240.688C183.361 244.048 176.305 245.728 169.105 245.728C154.225 245.728 146.785 237.856 146.785 222.112C146.785 214.432 148.849 209.008 152.977 205.84C157.105 202.576 163.441 200.656 171.985 200.08L187.393 198.928V194.464C187.393 191.488 186.721 189.472 185.377 188.416C184.033 187.264 181.873 186.688 178.897 186.688L151.825 187.84L151.249 174.448C161.521 171.664 171.265 170.272 180.481 170.272C189.793 170.272 196.465 172.192 200.497 176.032C204.625 179.872 206.689 186.016 206.689 194.464ZM174.289 213.472C168.913 213.952 166.225 216.832 166.225 222.112C166.225 227.392 168.577 230.032 173.281 230.032C176.929 230.032 180.913 229.456 185.233 228.304L187.393 227.728V212.32L174.289 213.472ZM290.316 252.928C290.316 261.184 287.148 267.28 280.812 271.216C274.476 275.152 265.884 277.12 255.036 277.12C244.284 277.12 235.98 275.68 230.124 272.8C224.364 269.92 221.484 264.688 221.484 257.104C221.484 251.056 224.94 245.344 231.852 239.968C228.3 237.568 226.524 233.92 226.524 229.024C226.524 227.104 227.964 223.936 230.844 219.52L232.14 217.504C225.612 212.8 222.348 205.888 222.348 196.768C222.348 187.552 225.084 180.88 230.556 176.752C236.124 172.624 243.468 170.56 252.588 170.56C256.716 170.56 260.796 171.04 264.828 172L267.132 172.432L290.316 171.712V187.12L279.516 186.256C281.628 189.52 282.684 192.784 282.684 196.048C282.684 205.648 280.236 212.272 275.34 215.92C270.444 219.568 262.764 221.392 252.3 221.392C250.092 221.392 248.124 221.2 246.396 220.816C245.436 223.312 244.956 225.376 244.956 227.008C244.956 228.544 245.772 229.6 247.404 230.176C249.036 230.752 252.876 231.088 258.924 231.184C271.02 231.28 279.276 232.912 283.692 236.08C288.108 239.152 290.316 244.768 290.316 252.928ZM240.492 255.088C240.492 259.216 245.532 261.28 255.612 261.28C265.788 261.28 270.876 258.88 270.876 254.08C270.876 251.488 270.012 249.808 268.284 249.04C266.556 248.368 262.908 247.984 257.34 247.888L244.38 246.88C241.788 249.472 240.492 252.208 240.492 255.088ZM241.644 196.192C241.644 203.2 245.292 206.704 252.588 206.704C259.98 206.704 263.676 203.2 263.676 196.192C263.676 189.088 259.98 185.536 252.588 185.536C245.292 185.536 241.644 189.088 241.644 196.192ZM321.302 244H302.006V143.2H321.302V175.456C327.926 172 333.878 170.272 339.158 170.272C348.758 170.272 355.382 173.104 359.03 178.768C362.678 184.432 364.502 193.168 364.502 204.976V244H345.206V205.408C345.206 199.36 344.486 194.896 343.046 192.016C341.606 189.04 338.726 187.552 334.406 187.552C330.662 187.552 326.918 188.128 323.174 189.28L321.302 189.856V244ZM381.6 244V172H400.896V244H381.6ZM381.6 162.784V143.2H400.896V162.784H381.6ZM438.021 244H418.725V172H437.877V176.032C444.405 172.192 450.405 170.272 455.877 170.272C465.477 170.272 472.101 173.104 475.749 178.768C479.397 184.432 481.221 193.168 481.221 204.976V244H461.925V205.552C461.925 199.408 461.205 194.896 459.765 192.016C458.325 189.04 455.445 187.552 451.125 187.552C447.189 187.552 443.397 188.224 439.749 189.568L438.021 190.144V244Z" fill="#EEEFF1"/>
</g>
<defs>
<filter id="filter0_d_1_8" x="27.656" y="141.2" width="459.565" height="141.92" filterUnits="userSpaceOnUse" color-interpolation-filters="sRGB">
<feFlood flood-opacity="0" result="BackgroundImageFix"/>
<feColorMatrix in="SourceAlpha" type="matrix" values="0 0 0 0 0 0 0 0 0 0 0 0 0 0 0 0 0 0 127 0" result="hardAlpha"/>
<feOffset dx="2" dy="2"/>
<feGaussianBlur stdDeviation="2"/>
<feComposite in2="hardAlpha" operator="out"/>
<feColorMatrix type="matrix" values="0 0 0 0 0.92549 0 0 0 0 0.580392 0 0 0 0 0.333333 0 0 0 0.35 0"/>
<feBlend mode="normal" in2="BackgroundImageFix" result="effect1_dropShadow_1_8"/>
<feBlend mode="normal" in="SourceGraphic" in2="effect1_dropShadow_1_8" result="shape"/>
</filter>
</defs>
</svg>
